<svg xmlns="http://www.w3.org/2000/svg" xmlns:xlink="http://www.w3.org/1999/xlink" width="840" height="430.78000000000003"><rect width="840" height="430.78000000000003" rx="0" ry="0" class="a"></rect><svg height="390.78000000000003" viewBox="0 0 80 39.078" width="800" x="20" xmlns="http://www.w3.org/2000/svg" xmlns:xlink="http://www.w3.org/1999/xlink" y="20"><style>.a{fill:rgb(40,45,53)}.b{font-family:'Fira Code',Monaco,Consolas,Menlo,'Bitstream Vera Sans Mono','Powerline Symbols',monospace}.c{fill:transparent}.d{fill:rgb(185,192,203);white-space:pre}.e{fill:rgb(168,204,140);white-space:pre}</style><g font-family="&#x27;Fira Code&#x27;,Monaco,Consolas,Menlo,&#x27;Bitstream Vera Sans Mono&#x27;,&#x27;Powerline Symbols&#x27;,monospace" font-size="1.67" class="b"><defs><symbol id="a"><rect height="18" width="80" x="0" y="0" class="c"></rect></symbol></defs><rect height="39.078" width="80" class="a"></rect><svg x="0" y="0" width="80"><svg x="0"><use xlink:href="#a"></use><text font-size="1.67" x="0" y="1.67" class="d">In</text><text font-size="1.67" x="3.006" y="1.67" class="d">ctost(theta</text><text font-size="1.67" x="15.029999999999998" y="1.67" class="d">=</text><text font-size="1.67" x="17.034" y="1.67" class="d">theta_hat,</text><text font-size="1.67" x="28.055999999999997" y="1.67" class="d">sigma</text><text font-size="1.67" x="34.068" y="1.67" class="d">=</text><text font-size="1.67" x="36.071999999999996" y="1.67" class="d">Sigma_hat,</text><text font-size="1.67" x="47.093999999999994" y="1.67" class="d">nu</text><text font-size="1.67" x="50.1" y="1.67" class="d">=</text><text font-size="1.67" x="52.104" y="1.67" class="d">nu,</text><text font-size="1.67" x="56.111999999999995" y="1.67" class="d">delta</text><text font-size="1.67" x="62.123999999999995" y="1.67" class="d">=</text><text font-size="1.67" x="64.128" y="1.67" class="d">log(1.25))</text><text font-size="1.67" x="75.14999999999999" y="1.67" class="d">:</text><text font-size="1.67" x="2.004" y="3.8409999999999997" class="d">Available</text><text font-size="1.67" x="12.024" y="3.8409999999999997" class="d">correction</text><text font-size="1.67" x="23.045999999999996" y="3.8409999999999997" class="d">method</text><text font-size="1.67" x="30.059999999999995" y="3.8409999999999997" class="d">for</text><text font-size="1.67" x="34.068" y="3.8409999999999997" class="d">the</text><text font-size="1.67" x="38.07599999999999" y="3.8409999999999997" class="d">multivariate</text><text font-size="1.67" x="51.102" y="3.8409999999999997" class="d">cTOST</text><text font-size="1.67" x="57.114" y="3.8409999999999997" class="d">(&#x27;optimal&#x27;)</text><text font-size="1.67" x="69.13799999999999" y="3.8409999999999997" class="d">is</text><text font-size="1.67" x="72.14399999999999" y="3.8409999999999997" class="d">only</text><text font-size="1.67" x="77.154" y="3.8409999999999997" class="d">&#x27;no</text><text font-size="1.67" x="0" y="6.012" class="d">ne&#x27;</text><text font-size="1.67" x="4.008" y="6.012" class="d">currently</text><text font-size="1.67" x="14.027999999999999" y="6.012" class="d">(&#x27;bootstrap&#x27;</text><text font-size="1.67" x="27.054" y="6.012" class="d">coming</text><text font-size="1.67" x="34.068" y="6.012" class="d">soon).</text><text font-size="1.67" x="0" y="8.183" class="e">✔</text><text font-size="1.67" x="2.004" y="8.183" class="e">Accept</text><text font-size="1.67" x="9.017999999999999" y="8.183" class="e">(bio)equivalence</text><text font-size="1.67" x="0" y="10.354" class="d">Equiv.</text><text font-size="1.67" x="7.013999999999999" y="10.354" class="d">Region:</text><text font-size="1.67" x="17.034" y="10.354" class="d">|----------------0----------------|</text><text font-size="1.67" x="0" y="12.525" class="d">t_half</text><text font-size="1.67" x="22.043999999999997" y="12.525" class="e">(----------x----------)</text><text font-size="1.67" x="0" y="14.696" class="d">AUC</text><text font-size="1.67" x="20.04" y="14.696" class="e">(-------x-------)</text><text font-size="1.67" x="0" y="16.866999999999997" class="d">AUC_inf</text><text font-size="1.67" x="21.041999999999998" y="16.866999999999997" class="e">(-------x-------)</text><text font-size="1.67" x="0" y="19.037999999999997" class="d">C_max</text><text font-size="1.67" x="18.035999999999998" y="19.037999999999997" class="e">(--------x---------)</text><text font-size="1.67" x="0" y="23.380000000000003" class="d">CIs:</text><text font-size="1.67" x="0" y="25.550999999999995" class="d">t_half</text><text font-size="1.67" x="9.017999999999999" y="25.550999999999995" class="d">(-0.14520</text><text font-size="1.67" x="19.037999999999997" y="25.550999999999995" class="d">;</text><text font-size="1.67" x="21.041999999999998" y="25.550999999999995" class="d">0.11256)</text><text font-size="1.67" x="34.068" y="25.550999999999995" class="e">✔</text><text font-size="1.67" x="0" y="27.722" class="d">AUC</text><text font-size="1.67" x="9.017999999999999" y="27.722" class="d">(-0.17694</text><text font-size="1.67" x="19.037999999999997" y="27.722" class="d">;</text><text font-size="1.67" x="21.041999999999998" y="27.722" class="d">0.00132)</text><text font-size="1.67" x="34.068" y="27.722" class="e">✔</text><text font-size="1.67" x="0" y="29.893" class="d">AUC_inf</text><text font-size="1.67" x="9.017999999999999" y="29.893" class="d">(-0.17055</text><text font-size="1.67" x="19.037999999999997" y="29.893" class="d">;</text><text font-size="1.67" x="21.041999999999998" y="29.893" class="d">0.00761)</text><text font-size="1.67" x="34.068" y="29.893" class="e">✔</text><text font-size="1.67" x="0" y="32.064" class="d">C_max</text><text font-size="1.67" x="9.017999999999999" y="32.064" class="d">(-0.21300</text><text font-size="1.67" x="19.037999999999997" y="32.064" class="d">;</text><text font-size="1.67" x="21.041999999999998" y="32.064" class="d">0.01075)</text><text font-size="1.67" x="34.068" y="32.064" class="e">✔</text><text font-size="1.67" x="0" y="36.406" class="d">Method:</text><text font-size="1.67" x="8.016" y="36.406" class="d">cTOST</text><text font-size="1.67" x="0" y="38.577000000000005" class="d">alpha</text><text font-size="1.67" x="6.012" y="38.577000000000005" class="d">=</text><text font-size="1.67" x="8.016" y="38.577000000000005" class="d">0.05;</text><text font-size="1.67" x="14.027999999999999" y="38.577000000000005" class="d">Equiv.</text><text font-size="1.67" x="21.041999999999998" y="38.577000000000005" class="d">lim.</text><text font-size="1.67" x="26.052" y="38.577000000000005" class="d">=</text><text font-size="1.67" x="28.055999999999997" y="38.577000000000005" class="d">+/-</text><text font-size="1.67" x="32.064" y="38.577000000000005" class="d">0.22314</text></svg></svg></g></svg></svg>