<svg xmlns="http://www.w3.org/2000/svg" xmlns:xlink="http://www.w3.org/1999/xlink" width="840" height="148.55"><rect width="840" height="148.55" rx="0" ry="0" class="a"></rect><svg height="108.55000000000001" viewBox="0 0 80 10.855" width="800" x="20" xmlns="http://www.w3.org/2000/svg" xmlns:xlink="http://www.w3.org/1999/xlink" y="20"><style>.a{fill:rgb(40,45,53)}.b{font-family:'Fira Code',Monaco,Consolas,Menlo,'Bitstream Vera Sans Mono','Powerline Symbols',monospace}.c{fill:transparent}.d{fill:rgb(185,192,203);white-space:pre}</style><g font-family="&#x27;Fira Code&#x27;,Monaco,Consolas,Menlo,&#x27;Bitstream Vera Sans Mono&#x27;,&#x27;Powerline Symbols&#x27;,monospace" font-size="1.67" class="b"><defs><symbol id="a"><rect height="5" width="80" x="0" y="0" class="c"></rect></symbol></defs><rect height="10.855" width="80" class="a"></rect><svg x="0" y="0" width="80"><svg x="0"><use xlink:href="#a"></use><text font-size="1.67" x="0" y="1.67" class="d">Loading</text><text font-size="1.67" x="8.016" y="1.67" class="d">required</text><text font-size="1.67" x="17.034" y="1.67" class="d">package:</text><text font-size="1.67" x="26.052" y="1.67" class="d">PowerTOST</text><text font-size="1.67" x="0" y="3.8409999999999997" class="d">Loading</text><text font-size="1.67" x="8.016" y="3.8409999999999997" class="d">required</text><text font-size="1.67" x="17.034" y="3.8409999999999997" class="d">package:</text><text font-size="1.67" x="26.052" y="3.8409999999999997" class="d">knitr</text><text font-size="1.67" x="0" y="6.012" class="d">Error</text><text font-size="1.67" x="6.012" y="6.012" class="d">in</text><text font-size="1.67" x="9.017999999999999" y="6.012" class="d">tost(theta</text><text font-size="1.67" x="20.04" y="6.012" class="d">=</text><text font-size="1.67" x="22.043999999999997" y="6.012" class="d">theta_hat,</text><text font-size="1.67" x="33.065999999999995" y="6.012" class="d">sigma</text><text font-size="1.67" x="39.077999999999996" y="6.012" class="d">=</text><text font-size="1.67" x="41.082" y="6.012" class="d">sig_hat,</text><text font-size="1.67" x="50.1" y="6.012" class="d">nu</text><text font-size="1.67" x="53.105999999999995" y="6.012" class="d">=</text><text font-size="1.67" x="55.10999999999999" y="6.012" class="d">nu,</text><text font-size="1.67" x="59.117999999999995" y="6.012" class="d">delta</text><text font-size="1.67" x="65.13" y="6.012" class="d">=</text><text font-size="1.67" x="67.134" y="6.012" class="d">log(1.25))</text><text font-size="1.67" x="78.15599999999999" y="6.012" class="d">:</text><text font-size="1.67" x="2.004" y="8.183" class="d">argument</text><text font-size="1.67" x="11.021999999999998" y="8.183" class="d">&quot;alpha&quot;</text><text font-size="1.67" x="19.037999999999997" y="8.183" class="d">is</text><text font-size="1.67" x="22.043999999999997" y="8.183" class="d">missing,</text><text font-size="1.67" x="31.061999999999998" y="8.183" class="d">with</text><text font-size="1.67" x="36.071999999999996" y="8.183" class="d">no</text><text font-size="1.67" x="39.077999999999996" y="8.183" class="d">default</text><text font-size="1.67" x="0" y="10.354" class="d">Error:</text><text font-size="1.67" x="7.013999999999999" y="10.354" class="d">object</text><text font-size="1.67" x="14.027999999999999" y="10.354" class="d">&#x27;stost&#x27;</text><text font-size="1.67" x="22.043999999999997" y="10.354" class="d">not</text><text font-size="1.67" x="26.052" y="10.354" class="d">found</text></svg></svg></g></svg></svg>